<mxfile host="Electron" modified="2024-03-10T17:15:40.719Z" agent="Mozilla/5.0 (Windows NT 10.0; Win64; x64) AppleWebKit/537.36 (KHTML, like Gecko) draw.io/23.1.5 Chrome/120.0.6099.109 Electron/28.1.0 Safari/537.36" etag="Wvz9bYXXwoCFS2Rqn36G" version="23.1.5" type="device">
  <diagram name="Page-1" id="6133507b-19e7-1e82-6fc7-422aa6c4b21f">
    <mxGraphModel dx="864" dy="-7134" grid="1" gridSize="10" guides="1" tooltips="1" connect="1" arrows="1" fold="1" page="1" pageScale="1" pageWidth="1100" pageHeight="850" background="none" math="0" shadow="0">
      <root>
        <mxCell id="0" />
        <mxCell id="1" parent="0" />
        <mxCell id="Ign2V5aoSsHIwkDNbK3U-1" style="edgeStyle=orthogonalEdgeStyle;rounded=0;orthogonalLoop=1;jettySize=auto;html=1;entryX=0.5;entryY=1;entryDx=0;entryDy=0;fontSize=11;endArrow=block;endFill=0;" parent="1" source="Ign2V5aoSsHIwkDNbK3U-2" target="Ign2V5aoSsHIwkDNbK3U-12" edge="1">
          <mxGeometry relative="1" as="geometry">
            <Array as="points">
              <mxPoint x="360" y="7980" />
              <mxPoint x="520" y="7980" />
              <mxPoint x="520" y="7940" />
            </Array>
          </mxGeometry>
        </mxCell>
        <mxCell id="Ign2V5aoSsHIwkDNbK3U-2" value="Giornale" style="rounded=0;whiteSpace=wrap;html=1;fontSize=11;" parent="1" vertex="1">
          <mxGeometry x="280" y="8030" width="160" height="20" as="geometry" />
        </mxCell>
        <mxCell id="Ign2V5aoSsHIwkDNbK3U-3" value="-redazione:string" style="rounded=0;whiteSpace=wrap;html=1;fontSize=11;align=left;" parent="1" vertex="1">
          <mxGeometry x="280" y="8050" width="160" height="50" as="geometry" />
        </mxCell>
        <mxCell id="Ign2V5aoSsHIwkDNbK3U-4" value="+Giornale()" style="rounded=0;whiteSpace=wrap;html=1;fontSize=11;align=left;" parent="1" vertex="1">
          <mxGeometry x="280.5" y="8100" width="160" height="50" as="geometry" />
        </mxCell>
        <mxCell id="Ign2V5aoSsHIwkDNbK3U-5" style="edgeStyle=orthogonalEdgeStyle;rounded=0;orthogonalLoop=1;jettySize=auto;html=1;entryX=0.5;entryY=1;entryDx=0;entryDy=0;fontSize=11;endArrow=block;endFill=0;exitX=0.5;exitY=0;exitDx=0;exitDy=0;" parent="1" source="Ign2V5aoSsHIwkDNbK3U-6" target="Ign2V5aoSsHIwkDNbK3U-12" edge="1">
          <mxGeometry relative="1" as="geometry">
            <mxPoint x="700" y="7950" as="sourcePoint" />
            <Array as="points">
              <mxPoint x="700" y="7980" />
              <mxPoint x="520" y="7980" />
              <mxPoint x="520" y="7940" />
            </Array>
          </mxGeometry>
        </mxCell>
        <mxCell id="Ign2V5aoSsHIwkDNbK3U-6" value="Rivista" style="rounded=0;whiteSpace=wrap;html=1;fontSize=11;" parent="1" vertex="1">
          <mxGeometry x="620" y="8020" width="160" height="20" as="geometry" />
        </mxCell>
        <mxCell id="Ign2V5aoSsHIwkDNbK3U-7" value="-titolo:string?&lt;br&gt;-categoria:string?" style="rounded=0;whiteSpace=wrap;html=1;fontSize=11;align=left;" parent="1" vertex="1">
          <mxGeometry x="620" y="8040" width="160" height="50" as="geometry" />
        </mxCell>
        <mxCell id="Ign2V5aoSsHIwkDNbK3U-8" value="+Rivista()" style="rounded=0;whiteSpace=wrap;html=1;fontSize=11;align=left;" parent="1" vertex="1">
          <mxGeometry x="620" y="8090" width="160" height="60" as="geometry" />
        </mxCell>
        <mxCell id="Ign2V5aoSsHIwkDNbK3U-10" value="&amp;lt;&amp;lt;abstract&amp;gt;&amp;gt;&lt;br&gt;Pubblicazione" style="rounded=0;whiteSpace=wrap;html=1;fontSize=11;" parent="1" vertex="1">
          <mxGeometry x="440" y="7760" width="160" height="30" as="geometry" />
        </mxCell>
        <mxCell id="Od2EwwpIKLjd1isu24_w-2" style="edgeStyle=orthogonalEdgeStyle;rounded=0;orthogonalLoop=1;jettySize=auto;html=1;exitX=0;exitY=0.75;exitDx=0;exitDy=0;entryX=1;entryY=0.25;entryDx=0;entryDy=0;endArrow=diamondThin;endFill=0;" parent="1" source="Ign2V5aoSsHIwkDNbK3U-11" target="Ign2V5aoSsHIwkDNbK3U-14" edge="1">
          <mxGeometry relative="1" as="geometry" />
        </mxCell>
        <mxCell id="Ign2V5aoSsHIwkDNbK3U-11" value="-codice:string?&lt;br&gt;&lt;span style=&quot;background-color: initial;&quot;&gt;-prezzo:double&lt;/span&gt;&lt;br&gt;&lt;div&gt;-&lt;/div&gt;" style="rounded=0;whiteSpace=wrap;html=1;fontSize=11;align=left;" parent="1" vertex="1">
          <mxGeometry x="440" y="7790" width="160" height="70" as="geometry" />
        </mxCell>
        <mxCell id="Ign2V5aoSsHIwkDNbK3U-12" value="+Pubblicazione()" style="rounded=0;whiteSpace=wrap;html=1;fontSize=11;align=left;" parent="1" vertex="1">
          <mxGeometry x="440.5" y="7850" width="160" height="70" as="geometry" />
        </mxCell>
        <mxCell id="Ign2V5aoSsHIwkDNbK3U-13" value="Edicola" style="rounded=0;whiteSpace=wrap;html=1;fontSize=11;" parent="1" vertex="1">
          <mxGeometry x="10" y="7700" width="160" height="30" as="geometry" />
        </mxCell>
        <mxCell id="Ign2V5aoSsHIwkDNbK3U-14" value="-nome:string&lt;br&gt;-indirizzo:string?&lt;br style=&quot;border-color: var(--border-color);&quot;&gt;&lt;div style=&quot;border-color: var(--border-color);&quot;&gt;-magazzino:[Pubblicazione]&lt;/div&gt;" style="rounded=0;whiteSpace=wrap;html=1;fontSize=11;align=left;" parent="1" vertex="1">
          <mxGeometry x="10" y="7730" width="160" height="60" as="geometry" />
        </mxCell>
        <mxCell id="Ign2V5aoSsHIwkDNbK3U-15" value="+Edicola()" style="rounded=0;whiteSpace=wrap;html=1;fontSize=11;align=left;" parent="1" vertex="1">
          <mxGeometry x="10" y="7790" width="160" height="40" as="geometry" />
        </mxCell>
      </root>
    </mxGraphModel>
  </diagram>
</mxfile>
